{"title":"The NRL Footy Show - 15-9-2016","uid":15889392,"size":2945396933,"categoryP":"video","categoryS":"tv_shows","magnet":"?xt=urn:btih:ca66062607a29015a1b708067f6dc1539bf44915&amp;dn=The+NRL+Footy+Show+-+15-9-2016&amp;tr=udp%3A%2F%2Ftracker.leechers-paradise.org%3A6969&amp;tr=udp%3A%2F%2Fzer0day.ch%3A1337&amp;tr=udp%3A%2F%2Fopen.demonii.com%3A1337&amp;tr=udp%3A%2F%2Ftracker.coppersurfer.tk%3A6969&amp;tr=udp%3A%2F%2Fexodus.desync.com%3A6969","seeders":2,"leechers":6,"uploader":"Bullrout","files":1,"time":1474706966,"description":"The NRL Footy Show - 15-9-2016\r\n\r\nJoin Fatty Vautin, Erin Molan and Darryl Brohman, along with the game’s biggest names for all the fun and all things footy in the show’s 23rd year.\r\n\r\nComplete name                            : The NRL Footy Show - 15-9-2016.mkv\r\nFormat                                   : Matroska\r\nFormat version                           : Version 4 / Version 2\r\nFile size                                : 2.74 GiB\r\nDuration                                 : 1 h 57 min\r\nOverall bit rate mode                    : Variable\r\nOverall bit rate                         : 3 334 kb/s\r\nEncoded date                             : UTC 2016-09-22 09:02:30\r\nWriting application                      : mkvmerge v9.4.2 ('So High') 64bit\r\nWriting library                          : libebml v1.3.4 + libmatroska v1.4.5\r\n\r\nVideo\r\nID                                       : 2\r\nFormat                                   : AVC\r\nFormat/Info                              : Advanced Video Codec\r\nFormat profile                           :   \r\nFormat settings, CABAC                   : Yes\r\nFormat settings, ReFrames                : 3 frames\r\nCodec ID                                 : V_MPEG4/ISO/AVC\r\nDuration                                 : 1 h 57 min\r\nBit rate mode                            : Variable\r\nBit rate                                 : 2 948 kb/s\r\nMaximum bit rate                         : 3 000 kb/s\r\nWidth                                    : 1 280 pixels\r\nHeight                                   : 720 pixels\r\nDisplay aspect ratio                     : 16:9\r\nFrame rate mode                          : Constant\r\nFrame rate                               : 25.000 FPS\r\nStandard                                 : PAL\r\nColor space                              : YUV\r\nChroma subsampling                       : 4:2:0\r\nBit depth                                : 8 bits\r\nScan type                                : Progressive\r\nBits/(Pixel*Frame)                       : 0.128\r\nStream size                              : 2.43 GiB (88%)\r\nWriting library                          : x264 core 112\r\nDefault                                  : Yes\r\nForced                                   : No\r\nColor range                              : Limited\r\nColor primaries                          : BT.709\r\nTransfer characteristics                 : BT.709\r\nMatrix coefficients                      : BT.709\r\n\r\nAudio\r\nID                                       : 1\r\nFormat                                   : AC-3\r\nFormat/Info                              : Audio Coding 3\r\nMode extension                           : CM (complete main)\r\nFormat settings, Endianness              : Big\r\nCodec ID                                 : A_AC3\r\nDuration                                 : 1 h 57 min\r\nBit rate mode                            : Constant\r\nBit rate                                 : 384 kb/s\r\nChannel(s)                               : 6 channels\r\nChannel positions                        : Front: L C R, Side: L R, LFE\r\nSampling rate                            : 48.0 kHz\r\nFrame rate                               : 31.250 FPS (1536 spf)\r\nCompression mode                         : Lossy\r\nStream size                              : 324 MiB (12%)\r\nDefault                                  : Yes\r\nForced                                   : No","torrent":{"xt":"urn:btih:ca66062607a29015a1b708067f6dc1539bf44915","amp;dn":"The+NRL+Footy+Show+-+15-9-2016","amp;tr":["udp%3A%2F%2Ftracker.leechers-paradise.org%3A6969","udp%3A%2F%2Fzer0day.ch%3A1337","udp%3A%2F%2Fopen.demonii.com%3A1337","udp%3A%2F%2Ftracker.coppersurfer.tk%3A6969","udp%3A%2F%2Fexodus.desync.com%3A6969"],"infoHash":"ca66062607a29015a1b708067f6dc1539bf44915","infoHashBuffer":{"type":"Buffer","data":[202,102,6,38,7,162,144,21,161,183,8,6,127,109,193,83,155,244,73,21]},"announce":[],"urlList":[]}}